<?xml version="1.0" encoding="utf-8"?>
<!-- Generator: Adobe Illustrator 18.1.1, SVG Export Plug-In . SVG Version: 6.00 Build 0)  -->
<!DOCTYPE svg PUBLIC "-//W3C//DTD SVG 1.1//EN" "http://www.w3.org/Graphics/SVG/1.1/DTD/svg11.dtd">
<svg version="1.1" id="_x32_" xmlns="http://www.w3.org/2000/svg" xmlns:xlink="http://www.w3.org/1999/xlink" x="0px" y="0px"
	 viewBox="0 0 512 512" style="enable-background:new 0 0 512 512;" xml:space="preserve">
<style type="text/css">
	.st0{fill:#000000;}
</style>
<g>
	<path class="st0" d="M260.406,323.203c-2.981,0.593-6.06,0.916-9.222,0.916c-25.75,0-46.619-20.869-46.619-46.619
		c0-25.742,20.869-46.611,46.619-46.611c10.34,0,19.863,3.41,27.598,9.109c3.079-7.72,6.255-14.456,9.071-20.381
		c3.026-6.384,5.708-12.038,6.864-16.139c-8.861-56.336,1.111-86.697,9.146-111.193c3.83-11.662,6.849-20.877,7.036-30.917
		c0.023-1.119,0.023-2.201,0.023-3.296c-16.679,30.789-51.027,41.077-72.354,119.536c-8.065,12.36-28.281,22.768-48.399,47.077
		c-20.238,24.444-32.839,41.926-48.602,80.735c-57.711,25.81-91.954,99.328-83.58,123.224
		c3.957,11.302,71.828,51.102,174.356-17.948c4.994-17.73,13.435-38.006,27.755-56.269
		C259.723,342.75,259.828,332.604,260.406,323.203z M156.407,417.785c-22.671,0-41.047-18.376-41.047-41.047
		c0-22.664,18.376-41.032,41.047-41.032c22.664,0,41.039,18.368,41.039,41.032C197.446,399.409,179.071,417.785,156.407,417.785z"/>
	<path class="st0" d="M145.353,351.483c-7.434,4.13-14.208,14.208-7.9,12.631c6.323-1.585,15.793-11.054,20.523-12.631
		C162.722,349.906,159.561,343.598,145.353,351.483z"/>
	<path class="st0" d="M238.636,248.813c-8.441,4.686-16.146,16.138-8.974,14.344c7.187-1.802,17.933-12.549,23.31-14.344
		C258.356,247.018,254.766,239.854,238.636,248.813z"/>
	<path class="st0" d="M425.083,114.333c-16.964-26.591-37.976-41.468-46.98-47.843c-15.162-10.731-13.675-32.539-13.675-49.391
		C364.428,8.178,356.25,0,344.355,0c-11.895,0-17.843,7.434-17.835,16.716c0.008,5.49,2.636,22.912,2.223,44.982
		c-0.691,36.849-29.738,59.468-15.883,142.178c-2.163,14.598-16.176,32.516-24.286,62.998
		c-8.156,30.669-12.293,51.823-10.386,93.666c-41.626,47.58-41.994,128.676-24.399,146.879
		c9.455,9.778,109.151,18.518,176.054-138.701C485.053,238.968,434.552,125.364,425.083,114.333z"/>
</g>
</svg>
